<svg width="500" height="500" viewBox="0 0 500 500" fill="none" xmlns="http://www.w3.org/2000/svg">
<rect width="500" height="500" rx="128" fill="white"/>
<mask id="mask0_5092_19" style="mask-type:luminance" maskUnits="userSpaceOnUse" x="76" y="87" width="349" height="326">
<path d="M424.12 87H76V412.869H424.12V87Z" fill="white"/>
</mask>
<g mask="url(#mask0_5092_19)">
<path d="M406.374 297.395H306.432V237.311C306.432 223.045 318.009 211.468 332.274 211.468H423.603V280.167C423.603 289.677 415.885 297.395 406.374 297.395Z" fill="#FFB200"/>
<path d="M258.312 172.927H81.8577V121.457C81.8577 102.437 97.2944 87 116.315 87H292.769V138.47C292.769 157.491 277.333 172.927 258.312 172.927Z" fill="#2D3339"/>
<path d="M389.663 412.869H247.665C228.645 412.869 213.208 397.432 213.208 378.412V326.942H424.12V378.412C424.12 397.432 408.683 412.869 389.663 412.869Z" fill="#FFB200"/>
<path d="M167.329 289.582H76V229.497C76 215.232 87.5776 203.654 101.843 203.654H193.171V263.739C193.171 278.004 181.594 289.582 167.329 289.582Z" fill="#2D3339"/>
</g>
</svg>
